<svg width="32" height="32" viewBox="0 0 32 32" fill="none" xmlns="http://www.w3.org/2000/svg">
    <path
        d="M27 15.0001H5C4.73478 15.0001 4.48043 15.1054 4.29289 15.293C4.10536 15.4805 4 15.7348 4 16.0001C4 16.2653 4.10536 16.5196 4.29289 16.7072C4.48043 16.8947 4.73478 17.0001 5 17.0001H27C27.2652 17.0001 27.5196 16.8947 27.7071 16.7072C27.8946 16.5196 28 16.2653 28 16.0001C28 15.7348 27.8946 15.4805 27.7071 15.293C27.5196 15.1054 27.2652 15.0001 27 15.0001Z"
        fill="#353F50" />
    <path
        d="M5 9.00006H27C27.2652 9.00006 27.5196 8.8947 27.7071 8.70717C27.8946 8.51963 28 8.26528 28 8.00006C28 7.73484 27.8946 7.48049 27.7071 7.29295C27.5196 7.10542 27.2652 7.00006 27 7.00006H5C4.73478 7.00006 4.48043 7.10542 4.29289 7.29295C4.10536 7.48049 4 7.73484 4 8.00006C4 8.26528 4.10536 8.51963 4.29289 8.70717C4.48043 8.8947 4.73478 9.00006 5 9.00006Z"
        fill="#353F50" />
    <path
        d="M27 23.0001H5C4.73478 23.0001 4.48043 23.1054 4.29289 23.293C4.10536 23.4805 4 23.7348 4 24.0001C4 24.2653 4.10536 24.5196 4.29289 24.7072C4.48043 24.8947 4.73478 25.0001 5 25.0001H27C27.2652 25.0001 27.5196 24.8947 27.7071 24.7072C27.8946 24.5196 28 24.2653 28 24.0001C28 23.7348 27.8946 23.4805 27.7071 23.293C27.5196 23.1054 27.2652 23.0001 27 23.0001Z"
        fill="#353F50" />
</svg>